<svg xmlns="http://www.w3.org/2000/svg" xmlns:svg="http://www.w3.org/2000/svg" id="svg8" width="8" height="8" version="1.1" viewBox="0 0 2.117 2.117"><metadata id="metadata5"/><g id="layer1" transform="translate(0,-294.88332)"><circle id="path4544-3" cx="1.058" cy="295.942" r=".397" style="fill:#5079cc;fill-opacity:1;stroke:none;stroke-width:.13229169;stroke-linecap:round;stroke-linejoin:round;stroke-miterlimit:4;stroke-dasharray:none;stroke-dashoffset:0;stroke-opacity:1;paint-order:normal"/><path id="path4546-7" d="M 0.41577997,296.5497 A 0.79374999,0.79374999 0 0 1 0.13224262,295.94165 0.79374999,0.79374999 0 0 1 0.41577996,295.3336" style="fill:none;fill-opacity:1;stroke:#5079cc;stroke-width:.15875001;stroke-linecap:round;stroke-linejoin:round;stroke-miterlimit:4;stroke-dasharray:none;stroke-dashoffset:0;stroke-opacity:1;paint-order:normal"/><path id="path4546-1-3" d="m -1.7008867,296.5497 a 0.79374999,0.79374999 0 0 1 -0.2835374,-0.60805 0.79374999,0.79374999 0 0 1 0.2835374,-0.60805" transform="scale(-1,1)" style="fill:none;fill-opacity:1;stroke:#5079cc;stroke-width:.15875001;stroke-linecap:round;stroke-linejoin:round;stroke-miterlimit:4;stroke-dasharray:none;stroke-dashoffset:0;stroke-opacity:1;paint-order:normal"/><path id="path4546-5-7" d="M 0.63239977,296.41847 A 0.62244385,0.62244385 0 0 1 0.4100551,295.94165 0.62244385,0.62244385 0 0 1 0.63239977,295.46483" style="fill:none;fill-opacity:1;stroke:#5079cc;stroke-width:.15875001;stroke-linecap:round;stroke-linejoin:round;stroke-miterlimit:4;stroke-dasharray:none;stroke-dashoffset:0;stroke-opacity:1;paint-order:normal"/><path id="path4546-5-4-2" d="m -1.484193,296.41847 a 0.62244391,0.62244391 0 0 1 -0.2223447,-0.47682 0.62244391,0.62244391 0 0 1 0.2223447,-0.47682" transform="scale(-1,1)" style="fill:none;fill-opacity:1;stroke:#5079cc;stroke-width:.15875001;stroke-linecap:round;stroke-linejoin:round;stroke-miterlimit:4;stroke-dasharray:none;stroke-dashoffset:0;stroke-opacity:1;paint-order:normal"/></g></svg>